<mxfile host="65bd71144e">
    <diagram id="jFPUdiWv6JmWJ_klE6PH" name="Page-1">
        <mxGraphModel dx="835" dy="509" grid="1" gridSize="10" guides="1" tooltips="1" connect="1" arrows="1" fold="1" page="1" pageScale="1" pageWidth="850" pageHeight="1100" math="0" shadow="0">
            <root>
                <mxCell id="0"/>
                <mxCell id="1" parent="0"/>
                <mxCell id="2" value="&lt;b&gt;Функциональные требования&lt;/b&gt;&lt;div&gt;* я так понимаю, что система обработки заявок будет дополнением к уже готовому онлайн-сервису&lt;/div&gt;&lt;div&gt;1. Кто акторы?&lt;/div&gt;&lt;div&gt;1а. Пользователи = пользователи онлайн сервиса&lt;/div&gt;&lt;div&gt;1b. Саппорт = сотрудники компании&lt;/div&gt;&lt;div&gt;2. Какие интерфейсы взаимодействия?&lt;/div&gt;&lt;div&gt;2а. Фронт Пользователя - встройка в существующие FE / mobile app&lt;/div&gt;&lt;div&gt;2b. Фронт Саппорта - Новая страница в FE Сотрудника компании&lt;/div&gt;&lt;div&gt;3. Базовые сценарии:&lt;/div&gt;&lt;div&gt;3а. Создание заявки Пользователем&lt;/div&gt;&lt;div&gt;3b. Ответ Саппорта, ответ Пользователя&lt;/div&gt;&lt;div&gt;3с. Закрытие заявки&lt;/div&gt;&lt;div&gt;4. Возможность подгружать файлы со сроком хранения 1 год&lt;/div&gt;&lt;div&gt;* не уверен, что требований достаточно, но для старта точно хватит&lt;/div&gt;" style="text;html=1;align=left;verticalAlign=middle;resizable=0;points=[];autosize=1;strokeColor=none;fillColor=none;" vertex="1" parent="1">
                    <mxGeometry x="40" y="120" width="580" height="220" as="geometry"/>
                </mxCell>
                <mxCell id="3" value="&lt;b&gt;Нефункциональные требования&lt;/b&gt;&lt;div style=&quot;text-align: left;&quot;&gt;1. Хранение файлов 1 год&lt;/div&gt;&lt;div style=&quot;text-align: left;&quot;&gt;2. Хранение истории - вечно. вечность = 5 лет&lt;/div&gt;&lt;div style=&quot;text-align: left;&quot;&gt;3. приход сообщения может занимать 1 сек.&lt;/div&gt;&lt;div style=&quot;text-align: left;&quot;&gt;4. пиковая нагрузка - это 10К пользователей / час. Вероятно, они создают нагрузку в 100rps в пике.&lt;/div&gt;" style="text;html=1;align=center;verticalAlign=middle;resizable=0;points=[];autosize=1;strokeColor=none;fillColor=none;" vertex="1" parent="1">
                    <mxGeometry x="40" y="360" width="580" height="90" as="geometry"/>
                </mxCell>
                <mxCell id="6" value="&lt;h1 style=&quot;margin-top: 0px;&quot;&gt;&lt;font style=&quot;font-size: 18px;&quot;&gt;Задача&lt;/font&gt;&lt;/h1&gt;&lt;div style=&quot;border: 0px; font-variant-numeric: inherit; font-variant-east-asian: inherit; font-variant-alternates: inherit; font-variant-position: inherit; font-variant-emoji: inherit; font-stretch: inherit; line-height: 24px; font-family: Roboto, sans-serif; font-optical-sizing: inherit; font-size-adjust: inherit; font-kerning: inherit; font-feature-settings: inherit; font-variation-settings: inherit; margin: 0px; overflow-anchor: none; padding: 0px 0px 6px; vertical-align: baseline; color: rgb(5, 5, 5);&quot; class=&quot;text text_p-small text_default learning-markdown js-learning-markdown&quot;&gt;&lt;p style=&quot;font-style: inherit; font-variant: inherit; font-weight: inherit; font-stretch: inherit; line-height: inherit; font-family: inherit; font-optical-sizing: inherit; font-size-adjust: inherit; font-kerning: inherit; font-feature-settings: inherit; font-variation-settings: inherit; border: 0px; margin: 12px 0px 0px; overflow-anchor: none; padding: 0px; vertical-align: baseline;&quot;&gt;&lt;font&gt;Вы выступаете в роли архитектора, которому поручено разработать высокоуровневую архитектуру системы для обработки заявок пользователей в онлайн-сервисе. Система должна обеспечивать масштабируемость, надежность и устойчивость при растущей нагрузке. Необходимо учесть, что в будущем количество пользователей и объём обрабатываемых данных будут увеличиваться.&lt;/font&gt;&lt;/p&gt;&lt;div style=&quot;font-size: 18px;&quot;&gt;&lt;br&gt;&lt;/div&gt;&lt;/div&gt;" style="text;html=1;whiteSpace=wrap;overflow=hidden;rounded=0;" vertex="1" parent="1">
                    <mxGeometry x="40" width="810" height="130" as="geometry"/>
                </mxCell>
            </root>
        </mxGraphModel>
    </diagram>
</mxfile>